HIERARCHY
ROOT Hips
{
	OFFSET 0.00000 0.00000 0.00000
	CHANNELS 6 Xposition Yposition Zposition Zrotation Yrotation Xrotation 
	JOINT LHipJoint
	{
		OFFSET 0 0 0
		CHANNELS 3 Zrotation Yrotation Xrotation
		JOINT LeftUpLeg
		{
			OFFSET 1.84395 -1.68683 0.74144
			CHANNELS 3 Zrotation Yrotation Xrotation
			JOINT LeftLeg
			{
				OFFSET 2.27037 -6.23779 0.00000
				CHANNELS 3 Zrotation Yrotation Xrotation
				JOINT LeftFoot
				{
					OFFSET 2.56918 -7.05877 0.00000
					CHANNELS 3 Zrotation Yrotation Xrotation
					JOINT LeftToeBase
					{
						OFFSET 0.22276 -0.61202 1.71784
						CHANNELS 3 Zrotation Yrotation Xrotation
						End Site
						{
							OFFSET 0.00000 -0.00000 0.91613
						}
					}
				}
			}
		}
	}
	JOINT RHipJoint
	{
		OFFSET 0 0 0
		CHANNELS 3 Zrotation Yrotation Xrotation
		JOINT RightUpLeg
		{
			OFFSET -1.76833 -1.68684 0.74144
			CHANNELS 3 Zrotation Yrotation Xrotation
			JOINT RightLeg
			{
				OFFSET -2.49360 -6.85110 0.00000
				CHANNELS 3 Zrotation Yrotation Xrotation
				JOINT RightFoot
				{
					OFFSET -2.55538 -7.02085 0.00000
					CHANNELS 3 Zrotation Yrotation Xrotation
					JOINT RightToeBase
					{
						OFFSET -0.21516 -0.59115 1.68050
						CHANNELS 3 Zrotation Yrotation Xrotation
						End Site
						{
							OFFSET -0.00000 -0.00000 0.89604
						}
					}
				}
			}
		}
	}
	JOINT LowerBack
	{
		OFFSET 0 0 0
		CHANNELS 3 Zrotation Yrotation Xrotation
		JOINT Spine
		{
			OFFSET 0.06382 1.72312 -0.19613
			CHANNELS 3 Zrotation Yrotation Xrotation
			JOINT Spine1
			{
				OFFSET -0.00055 1.73507 0.23859
				CHANNELS 3 Zrotation Yrotation Xrotation
				JOINT Neck
				{
					OFFSET 0 0 0
					CHANNELS 3 Zrotation Yrotation Xrotation
					JOINT Neck1
					{
						OFFSET 0.03638 1.65562 0.09633
						CHANNELS 3 Zrotation Yrotation Xrotation
						JOINT Head
						{
							OFFSET 0.06388 1.62807 -0.32386
							CHANNELS 3 Zrotation Yrotation Xrotation
							End Site
							{
								OFFSET 0.00995 1.67644 -0.12021
							}
						}
					}
				}
				JOINT LeftShoulder
				{
					OFFSET 0 0 0
					CHANNELS 3 Zrotation Yrotation Xrotation
					JOINT LeftArm
					{
						OFFSET 3.09648 1.42991 0.28122
						CHANNELS 3 Zrotation Yrotation Xrotation
						JOINT LeftForeArm
						{
							OFFSET 5.11878 -0.00000 -0.00000
							CHANNELS 3 Zrotation Yrotation Xrotation
							JOINT LeftHand
							{
								OFFSET 3.59971 -0.00000 0.00000
								CHANNELS 3 Zrotation Yrotation Xrotation
								JOINT LeftFingerBase
								{
									OFFSET 0 0 0
									CHANNELS 3 Zrotation Yrotation Xrotation
									JOINT LeftHandIndex1
									{
										OFFSET 0.62877 -0.00000 0.00000
										CHANNELS 3 Zrotation Yrotation Xrotation
										End Site
										{
											OFFSET 0.50693 -0.00000 0.00000
										}
									}
								}
								JOINT LThumb
								{
									OFFSET 0 0 0
									CHANNELS 3 Zrotation Yrotation Xrotation
									End Site
									{
										OFFSET 0.51467 -0.00000 0.51467
									}
								}
							}
						}
					}
				}
				JOINT RightShoulder
				{
					OFFSET 0 0 0
					CHANNELS 3 Zrotation Yrotation Xrotation
					JOINT RightArm
					{
						OFFSET -3.33565 1.14597 0.05047
						CHANNELS 3 Zrotation Yrotation Xrotation
						JOINT RightForeArm
						{
							OFFSET -5.49020 -0.00000 0.00000
							CHANNELS 3 Zrotation Yrotation Xrotation
							JOINT RightHand
							{
								OFFSET -3.20659 -0.00000 -0.00000
								CHANNELS 3 Zrotation Yrotation Xrotation
								JOINT RightFingerBase
								{
									OFFSET 0 0 0
									CHANNELS 3 Zrotation Yrotation Xrotation
									JOINT RightHandIndex1
									{
										OFFSET -0.69188 -0.00000 0.00000
										CHANNELS 3 Zrotation Yrotation Xrotation
										End Site
										{
											OFFSET -0.55781 -0.00000 0.00000
										}
									}
								}
								JOINT RThumb
								{
									OFFSET 0 0 0
									CHANNELS 3 Zrotation Yrotation Xrotation
									End Site
									{
										OFFSET -0.56633 -0.00000 0.56633
									}
								}
							}
						}
					}
				}
			}
		}
	}
}
MOTION
Frames: 6
Frame Time: .0083333
0.2155 17.5375 8.5802 0 0 0 0 0 0 -21 0 0 0 0 0 0 0 0 0 0 0 0 0 0 21 0 0 0 0 0 0 0 0 0 0 0 0 0 0 0 0 0 0 0 0 0 0 -16 0 0 21 0 0 11 0 0 0 -8 0 0 0 0 0 0 0 0 0 0 0 0 0 0 0 0 0 0 0 0 8 0 0 0 0 0 0 0 0 0 0 0 0 0 0 0 0 0
0.2155 17.5375 8.5802 -8.2243 -0.3159 12.4661 0.0000 0.0000 0.0000 -22.8307 -49.0890 27.7405 0.0548 -1.5112 -4.1567 -4.4315 46.6659 -53.8671 0.9883 6.3274 17.7373 0.0000 0.0000 0.0000 25.3312 27.4879 4.9098 -0.0004 -0.1272 0.3495 1.3800 -24.1210 -23.3064 -0.1184 -2.2181 6.1087 3.1056 0.3155 -1.3554 3.3365 0.9165 -12.0326 1.8090 0.3506 -12.2034 -14.6026 -13.3436 -0.7800 11.6343 -20.6154 24.0201 4.1370 -10.0521 10.5891 -0.0000 0.0000 0.0000 -94.7730 12.7427 15.0535 10.7249 -17.8654 -1.6906 -0.0000 -0.0000 27.5509 15.8794 -11.7375 -3.3120 -7.1250 0.0000 -0.0000 -7.8877 17.8585 5.1378 -0.0000 0.0000 0.0000 88.7052 -12.7690 4.6349 -12.8060 21.0022 -2.3833 0.0000 0.0000 39.5733 20.3291 -24.4330 -8.7125 7.1250 -0.0000 -0.0000 46.8962 -48.5876 -5.2334
0.2133 17.5371 8.5784 -8.2438 -0.2708 12.4547 0.0000 0.0000 0.0000 -22.6589 -48.9798 27.5719 0.0553 -1.5172 -4.1732 -4.4123 46.5576 -53.7112 0.9847 6.3161 17.7044 0.0000 0.0000 0.0000 25.3890 27.5354 4.9666 -0.0003 -0.1153 0.3168 1.3950 -24.2101 -23.3524 -0.1120 -2.1575 5.9413 3.1013 0.3070 -1.3411 3.3477 0.9067 -12.0309 1.8245 0.3471 -12.2105 -14.5822 -13.3923 -0.8750 11.6576 -20.6839 24.0185 4.1231 -10.0747 10.6175 0.0000 -0.0000 0.0000 -94.7663 12.7208 15.1595 10.7104 -17.8431 -1.6861 -0.0000 -0.0000 27.4363 15.9533 -11.7347 -3.3274 -7.1250 0.0000 -0.0000 -7.8361 17.8562 5.1040 0.0000 -0.0000 0.0000 88.7744 -12.7718 4.3012 -12.7890 20.9772 -2.3772 0.0000 0.0000 40.0320 20.2506 -24.3056 -8.6346 7.1250 -0.0000 -0.0000 46.7401 -48.5037 -5.0891
0.2128 17.5370 8.5780 -8.2376 -0.2453 12.4501 0.0000 0.0000 0.0000 -22.6184 -48.9566 27.5057 0.0546 -1.5077 -4.1468 -4.3439 46.4516 -53.6872 0.9911 6.3363 17.7633 0.0000 0.0000 0.0000 25.3974 27.5528 4.9942 -0.0003 -0.1101 0.3026 1.4094 -24.2776 -23.3538 -0.1109 -2.1476 5.9137 3.0985 0.3135 -1.3488 3.3377 0.9141 -12.0303 1.8144 0.3504 -12.2048 -14.5866 -13.4263 -0.9476 11.6886 -20.7401 24.0603 4.1191 -10.0935 10.6600 0.0000 0.0000 0.0000 -94.7713 12.7132 15.1719 10.7139 -17.8483 -1.6872 -0.0000 -0.0000 27.4749 15.9442 -11.6974 -3.3150 -7.1250 0.0000 -0.0000 -7.8426 17.8952 5.1015 0.0000 0.0000 0.0000 88.8156 -12.7950 4.1994 -12.8029 20.9977 -2.3822 0.0000 0.0000 40.0967 20.2569 -24.2920 -8.6330 7.1250 -0.0000 -0.0000 46.7347 -48.4924 -5.0723
0.2122 17.5377 8.5772 -8.2085 -0.2415 12.4541 0.0000 0.0000 0.0000 -22.6052 -48.9408 27.4412 0.0540 -1.4991 -4.1232 -4.3819 46.4335 -53.5548 0.9945 6.3466 17.7934 0.0000 0.0000 0.0000 25.3507 27.5258 4.9628 -0.0003 -0.1120 0.3078 1.4126 -24.2725 -23.3076 -0.1126 -2.1632 5.9568 3.0568 0.3292 -1.3620 3.3215 0.9309 -12.0263 1.8182 0.3620 -12.1918 -14.5358 -13.4477 -0.9701 11.6990 -20.7716 24.0351 4.1088 -10.1018 10.6548 -0.0000 -0.0000 0.0000 -94.7911 12.6775 15.1134 10.7156 -17.8510 -1.6877 -0.0000 -0.0000 27.6644 15.8093 -11.7647 -3.3041 -7.1250 0.0000 -0.0000 -7.9365 17.8355 5.1742 -0.0000 -0.0000 0.0000 88.8237 -12.8078 4.2163 -12.8200 21.0228 -2.3883 0.0000 0.0000 39.9770 20.3257 -24.3614 -8.6873 7.1250 -0.0000 -0.0000 46.8397 -48.5340 -5.1484
0.2065 17.5431 8.5768 -7.7499 -0.3505 12.5851 0.0000 0.0000 0.0000 -23.0623 -49.1586 27.3138 0.0508 -1.4552 -4.0023 -4.2744 46.4039 -53.7766 1.0308 6.4581 18.1195 0.0000 0.0000 0.0000 24.7408 27.7696 4.8503 -0.0003 -0.1121 0.3079 1.4206 -24.3720 -23.4547 -0.1243 -2.2730 6.2609 2.4381 0.3329 -1.5306 3.2272 0.8862 -12.0528 2.0638 0.3985 -12.1201 -14.4611 -13.4636 -0.9474 11.7091 -20.7925 23.9469 4.1007 -10.1069 10.6130 -0.0000 0.0000 0.0000 -94.8258 12.6109 15.0357 10.6888 -17.8097 -1.6795 -0.0000 -0.0000 27.9190 15.6278 -12.0634 -3.3458 -7.1250 0.0000 -0.0000 -8.0614 17.5423 5.3098 -0.0000 0.0000 0.0000 88.7466 -12.7322 4.3500 -12.7007 20.8472 -2.3457 0.0000 0.0000 39.7684 19.9898 -24.4282 -8.5553 7.1250 -0.0000 -0.0000 46.6311 -48.6378 -5.2584
